<mxfile host="65bd71144e">
    <diagram name="n:m" id="ieXPowEViQlfggIgyjUa">
        <mxGraphModel dx="1011" dy="427" grid="1" gridSize="10" guides="1" tooltips="1" connect="1" arrows="1" fold="1" page="1" pageScale="1" pageWidth="827" pageHeight="1169" math="0" shadow="0">
            <root>
                <mxCell id="gpySdazYFh3qlj3dnxyZ-0"/>
                <mxCell id="gpySdazYFh3qlj3dnxyZ-1" parent="gpySdazYFh3qlj3dnxyZ-0"/>
                <mxCell id="gpySdazYFh3qlj3dnxyZ-2" value="servants" style="whiteSpace=wrap;html=1;align=center;" vertex="1" parent="gpySdazYFh3qlj3dnxyZ-1">
                    <mxGeometry x="160" y="220" width="120" height="40" as="geometry"/>
                </mxCell>
                <mxCell id="gpySdazYFh3qlj3dnxyZ-3" value="id" style="ellipse;whiteSpace=wrap;html=1;align=center;fontStyle=4;" vertex="1" parent="gpySdazYFh3qlj3dnxyZ-1">
                    <mxGeometry x="160" y="120" width="120" height="40" as="geometry"/>
                </mxCell>
                <mxCell id="gpySdazYFh3qlj3dnxyZ-4" value="yrs_served" style="ellipse;whiteSpace=wrap;html=1;align=center;" vertex="1" parent="gpySdazYFh3qlj3dnxyZ-1">
                    <mxGeometry x="160" y="320" width="120" height="40" as="geometry"/>
                </mxCell>
                <mxCell id="gpySdazYFh3qlj3dnxyZ-5" value="servant_name" style="ellipse;whiteSpace=wrap;html=1;align=center;" vertex="1" parent="gpySdazYFh3qlj3dnxyZ-1">
                    <mxGeometry x="20" y="220" width="100" height="40" as="geometry"/>
                </mxCell>
                <mxCell id="gpySdazYFh3qlj3dnxyZ-6" value="" style="endArrow=none;html=1;rounded=0;exitX=0.5;exitY=1;exitDx=0;exitDy=0;entryX=0.5;entryY=0;entryDx=0;entryDy=0;" edge="1" parent="gpySdazYFh3qlj3dnxyZ-1" source="gpySdazYFh3qlj3dnxyZ-3" target="gpySdazYFh3qlj3dnxyZ-2">
                    <mxGeometry relative="1" as="geometry">
                        <mxPoint x="280" y="220" as="sourcePoint"/>
                        <mxPoint x="440" y="220" as="targetPoint"/>
                    </mxGeometry>
                </mxCell>
                <mxCell id="gpySdazYFh3qlj3dnxyZ-7" value="" style="endArrow=none;html=1;rounded=0;entryX=0;entryY=0.5;entryDx=0;entryDy=0;exitX=1;exitY=0.5;exitDx=0;exitDy=0;" edge="1" parent="gpySdazYFh3qlj3dnxyZ-1" source="gpySdazYFh3qlj3dnxyZ-5" target="gpySdazYFh3qlj3dnxyZ-2">
                    <mxGeometry relative="1" as="geometry">
                        <mxPoint x="20" y="310" as="sourcePoint"/>
                        <mxPoint x="180" y="310" as="targetPoint"/>
                    </mxGeometry>
                </mxCell>
                <mxCell id="gpySdazYFh3qlj3dnxyZ-8" value="" style="endArrow=none;html=1;rounded=0;entryX=0.5;entryY=0;entryDx=0;entryDy=0;exitX=0.5;exitY=1;exitDx=0;exitDy=0;" edge="1" parent="gpySdazYFh3qlj3dnxyZ-1" source="gpySdazYFh3qlj3dnxyZ-2" target="gpySdazYFh3qlj3dnxyZ-4">
                    <mxGeometry relative="1" as="geometry">
                        <mxPoint x="190" y="270" as="sourcePoint"/>
                        <mxPoint x="460" y="240" as="targetPoint"/>
                    </mxGeometry>
                </mxCell>
                <mxCell id="gpySdazYFh3qlj3dnxyZ-9" value="products" style="whiteSpace=wrap;html=1;align=center;" vertex="1" parent="gpySdazYFh3qlj3dnxyZ-1">
                    <mxGeometry x="510" y="220" width="120" height="40" as="geometry"/>
                </mxCell>
                <mxCell id="gpySdazYFh3qlj3dnxyZ-10" value="id" style="ellipse;whiteSpace=wrap;html=1;align=center;fontStyle=4;" vertex="1" parent="gpySdazYFh3qlj3dnxyZ-1">
                    <mxGeometry x="510" y="120" width="120" height="40" as="geometry"/>
                </mxCell>
                <mxCell id="gpySdazYFh3qlj3dnxyZ-11" value="product_price" style="ellipse;whiteSpace=wrap;html=1;align=center;" vertex="1" parent="gpySdazYFh3qlj3dnxyZ-1">
                    <mxGeometry x="510" y="320" width="120" height="40" as="geometry"/>
                </mxCell>
                <mxCell id="gpySdazYFh3qlj3dnxyZ-12" value="product_name" style="ellipse;whiteSpace=wrap;html=1;align=center;" vertex="1" parent="gpySdazYFh3qlj3dnxyZ-1">
                    <mxGeometry x="680" y="220" width="100" height="40" as="geometry"/>
                </mxCell>
                <mxCell id="gpySdazYFh3qlj3dnxyZ-13" value="" style="endArrow=none;html=1;rounded=0;exitX=0.5;exitY=1;exitDx=0;exitDy=0;entryX=0.5;entryY=0;entryDx=0;entryDy=0;" edge="1" parent="gpySdazYFh3qlj3dnxyZ-1" source="gpySdazYFh3qlj3dnxyZ-10" target="gpySdazYFh3qlj3dnxyZ-9">
                    <mxGeometry relative="1" as="geometry">
                        <mxPoint x="630" y="220" as="sourcePoint"/>
                        <mxPoint x="790" y="220" as="targetPoint"/>
                    </mxGeometry>
                </mxCell>
                <mxCell id="gpySdazYFh3qlj3dnxyZ-14" value="" style="endArrow=none;html=1;rounded=0;entryX=0.5;entryY=0;entryDx=0;entryDy=0;exitX=0.5;exitY=1;exitDx=0;exitDy=0;" edge="1" parent="gpySdazYFh3qlj3dnxyZ-1" source="gpySdazYFh3qlj3dnxyZ-9" target="gpySdazYFh3qlj3dnxyZ-11">
                    <mxGeometry relative="1" as="geometry">
                        <mxPoint x="540" y="270" as="sourcePoint"/>
                        <mxPoint x="810" y="240" as="targetPoint"/>
                    </mxGeometry>
                </mxCell>
                <mxCell id="gpySdazYFh3qlj3dnxyZ-15" value="" style="endArrow=none;html=1;rounded=0;exitX=0;exitY=0.5;exitDx=0;exitDy=0;entryX=1;entryY=0.5;entryDx=0;entryDy=0;" edge="1" parent="gpySdazYFh3qlj3dnxyZ-1" source="gpySdazYFh3qlj3dnxyZ-12" target="gpySdazYFh3qlj3dnxyZ-9">
                    <mxGeometry relative="1" as="geometry">
                        <mxPoint x="580" y="170" as="sourcePoint"/>
                        <mxPoint x="580" y="230" as="targetPoint"/>
                    </mxGeometry>
                </mxCell>
                <mxCell id="gpySdazYFh3qlj3dnxyZ-16" value="purchases" style="shape=rhombus;perimeter=rhombusPerimeter;whiteSpace=wrap;html=1;align=center;" vertex="1" parent="gpySdazYFh3qlj3dnxyZ-1">
                    <mxGeometry x="330" y="210" width="120" height="60" as="geometry"/>
                </mxCell>
                <mxCell id="gpySdazYFh3qlj3dnxyZ-17" value="" style="endArrow=none;html=1;rounded=0;exitX=1;exitY=0.5;exitDx=0;exitDy=0;entryX=0;entryY=0.5;entryDx=0;entryDy=0;" edge="1" parent="gpySdazYFh3qlj3dnxyZ-1" source="gpySdazYFh3qlj3dnxyZ-2" target="gpySdazYFh3qlj3dnxyZ-16">
                    <mxGeometry relative="1" as="geometry">
                        <mxPoint x="290" y="220" as="sourcePoint"/>
                        <mxPoint x="450" y="220" as="targetPoint"/>
                    </mxGeometry>
                </mxCell>
                <mxCell id="gpySdazYFh3qlj3dnxyZ-18" value="" style="endArrow=none;html=1;rounded=0;exitX=0;exitY=0.5;exitDx=0;exitDy=0;entryX=1;entryY=0.5;entryDx=0;entryDy=0;" edge="1" parent="gpySdazYFh3qlj3dnxyZ-1" source="gpySdazYFh3qlj3dnxyZ-9" target="gpySdazYFh3qlj3dnxyZ-16">
                    <mxGeometry relative="1" as="geometry">
                        <mxPoint x="290" y="250" as="sourcePoint"/>
                        <mxPoint x="340" y="250" as="targetPoint"/>
                    </mxGeometry>
                </mxCell>
                <mxCell id="gpySdazYFh3qlj3dnxyZ-19" value="n" style="text;strokeColor=none;fillColor=none;spacingLeft=4;spacingRight=4;overflow=hidden;rotatable=0;points=[[0,0.5],[1,0.5]];portConstraint=eastwest;fontSize=12;" vertex="1" parent="gpySdazYFh3qlj3dnxyZ-1">
                    <mxGeometry x="280" y="210" width="20" height="30" as="geometry"/>
                </mxCell>
                <mxCell id="gpySdazYFh3qlj3dnxyZ-20" value="m" style="text;strokeColor=none;fillColor=none;spacingLeft=4;spacingRight=4;overflow=hidden;rotatable=0;points=[[0,0.5],[1,0.5]];portConstraint=eastwest;fontSize=12;" vertex="1" parent="gpySdazYFh3qlj3dnxyZ-1">
                    <mxGeometry x="490" y="210" width="20" height="30" as="geometry"/>
                </mxCell>
            </root>
        </mxGraphModel>
    </diagram>
    <diagram name="1:n" id="BRvbLTiH3uVsDgA7VyO8">
        <mxGraphModel dx="1011" dy="427" grid="1" gridSize="10" guides="1" tooltips="1" connect="1" arrows="1" fold="1" page="1" pageScale="1" pageWidth="827" pageHeight="1169" math="0" shadow="0">
            <root>
                <mxCell id="IBXxS17CcvfTMbR3PT0t-0"/>
                <mxCell id="IBXxS17CcvfTMbR3PT0t-1" parent="IBXxS17CcvfTMbR3PT0t-0"/>
                <mxCell id="IBXxS17CcvfTMbR3PT0t-2" value="cats" style="whiteSpace=wrap;html=1;align=center;" vertex="1" parent="IBXxS17CcvfTMbR3PT0t-1">
                    <mxGeometry x="160" y="220" width="120" height="40" as="geometry"/>
                </mxCell>
                <mxCell id="IBXxS17CcvfTMbR3PT0t-3" value="id" style="ellipse;whiteSpace=wrap;html=1;align=center;fontStyle=4;" vertex="1" parent="IBXxS17CcvfTMbR3PT0t-1">
                    <mxGeometry x="160" y="120" width="120" height="40" as="geometry"/>
                </mxCell>
                <mxCell id="IBXxS17CcvfTMbR3PT0t-4" value="fur_color" style="ellipse;whiteSpace=wrap;html=1;align=center;" vertex="1" parent="IBXxS17CcvfTMbR3PT0t-1">
                    <mxGeometry x="160" y="320" width="120" height="40" as="geometry"/>
                </mxCell>
                <mxCell id="IBXxS17CcvfTMbR3PT0t-5" value="cat_name" style="ellipse;whiteSpace=wrap;html=1;align=center;" vertex="1" parent="IBXxS17CcvfTMbR3PT0t-1">
                    <mxGeometry x="20" y="220" width="100" height="40" as="geometry"/>
                </mxCell>
                <mxCell id="IBXxS17CcvfTMbR3PT0t-6" value="" style="endArrow=none;html=1;rounded=0;exitX=0.5;exitY=1;exitDx=0;exitDy=0;entryX=0.5;entryY=0;entryDx=0;entryDy=0;" edge="1" parent="IBXxS17CcvfTMbR3PT0t-1" source="IBXxS17CcvfTMbR3PT0t-3" target="IBXxS17CcvfTMbR3PT0t-2">
                    <mxGeometry relative="1" as="geometry">
                        <mxPoint x="280" y="220" as="sourcePoint"/>
                        <mxPoint x="440" y="220" as="targetPoint"/>
                    </mxGeometry>
                </mxCell>
                <mxCell id="IBXxS17CcvfTMbR3PT0t-7" value="" style="endArrow=none;html=1;rounded=0;entryX=0;entryY=0.5;entryDx=0;entryDy=0;exitX=1;exitY=0.5;exitDx=0;exitDy=0;" edge="1" parent="IBXxS17CcvfTMbR3PT0t-1" source="IBXxS17CcvfTMbR3PT0t-5" target="IBXxS17CcvfTMbR3PT0t-2">
                    <mxGeometry relative="1" as="geometry">
                        <mxPoint x="20" y="310" as="sourcePoint"/>
                        <mxPoint x="180" y="310" as="targetPoint"/>
                    </mxGeometry>
                </mxCell>
                <mxCell id="IBXxS17CcvfTMbR3PT0t-8" value="" style="endArrow=none;html=1;rounded=0;entryX=0.5;entryY=0;entryDx=0;entryDy=0;exitX=0.5;exitY=1;exitDx=0;exitDy=0;" edge="1" parent="IBXxS17CcvfTMbR3PT0t-1" source="IBXxS17CcvfTMbR3PT0t-2" target="IBXxS17CcvfTMbR3PT0t-4">
                    <mxGeometry relative="1" as="geometry">
                        <mxPoint x="190" y="270" as="sourcePoint"/>
                        <mxPoint x="460" y="240" as="targetPoint"/>
                    </mxGeometry>
                </mxCell>
                <mxCell id="IBXxS17CcvfTMbR3PT0t-9" value="kittens" style="whiteSpace=wrap;html=1;align=center;" vertex="1" parent="IBXxS17CcvfTMbR3PT0t-1">
                    <mxGeometry x="510" y="220" width="120" height="40" as="geometry"/>
                </mxCell>
                <mxCell id="IBXxS17CcvfTMbR3PT0t-10" value="id" style="ellipse;whiteSpace=wrap;html=1;align=center;fontStyle=4;" vertex="1" parent="IBXxS17CcvfTMbR3PT0t-1">
                    <mxGeometry x="510" y="120" width="120" height="40" as="geometry"/>
                </mxCell>
                <mxCell id="IBXxS17CcvfTMbR3PT0t-11" value="fur_color" style="ellipse;whiteSpace=wrap;html=1;align=center;" vertex="1" parent="IBXxS17CcvfTMbR3PT0t-1">
                    <mxGeometry x="510" y="320" width="120" height="40" as="geometry"/>
                </mxCell>
                <mxCell id="IBXxS17CcvfTMbR3PT0t-12" value="kitten_name" style="ellipse;whiteSpace=wrap;html=1;align=center;" vertex="1" parent="IBXxS17CcvfTMbR3PT0t-1">
                    <mxGeometry x="680" y="220" width="100" height="40" as="geometry"/>
                </mxCell>
                <mxCell id="IBXxS17CcvfTMbR3PT0t-13" value="" style="endArrow=none;html=1;rounded=0;exitX=0.5;exitY=1;exitDx=0;exitDy=0;entryX=0.5;entryY=0;entryDx=0;entryDy=0;" edge="1" parent="IBXxS17CcvfTMbR3PT0t-1" source="IBXxS17CcvfTMbR3PT0t-10" target="IBXxS17CcvfTMbR3PT0t-9">
                    <mxGeometry relative="1" as="geometry">
                        <mxPoint x="630" y="220" as="sourcePoint"/>
                        <mxPoint x="790" y="220" as="targetPoint"/>
                    </mxGeometry>
                </mxCell>
                <mxCell id="IBXxS17CcvfTMbR3PT0t-14" value="" style="endArrow=none;html=1;rounded=0;entryX=0.5;entryY=0;entryDx=0;entryDy=0;exitX=0.5;exitY=1;exitDx=0;exitDy=0;" edge="1" parent="IBXxS17CcvfTMbR3PT0t-1" source="IBXxS17CcvfTMbR3PT0t-9" target="IBXxS17CcvfTMbR3PT0t-11">
                    <mxGeometry relative="1" as="geometry">
                        <mxPoint x="540" y="270" as="sourcePoint"/>
                        <mxPoint x="810" y="240" as="targetPoint"/>
                    </mxGeometry>
                </mxCell>
                <mxCell id="IBXxS17CcvfTMbR3PT0t-15" value="" style="endArrow=none;html=1;rounded=0;exitX=0;exitY=0.5;exitDx=0;exitDy=0;entryX=1;entryY=0.5;entryDx=0;entryDy=0;" edge="1" parent="IBXxS17CcvfTMbR3PT0t-1" source="IBXxS17CcvfTMbR3PT0t-12" target="IBXxS17CcvfTMbR3PT0t-9">
                    <mxGeometry relative="1" as="geometry">
                        <mxPoint x="580" y="170" as="sourcePoint"/>
                        <mxPoint x="580" y="230" as="targetPoint"/>
                    </mxGeometry>
                </mxCell>
                <mxCell id="IBXxS17CcvfTMbR3PT0t-16" value="has a&amp;nbsp;" style="shape=rhombus;perimeter=rhombusPerimeter;whiteSpace=wrap;html=1;align=center;" vertex="1" parent="IBXxS17CcvfTMbR3PT0t-1">
                    <mxGeometry x="330" y="210" width="120" height="60" as="geometry"/>
                </mxCell>
                <mxCell id="IBXxS17CcvfTMbR3PT0t-17" value="" style="endArrow=none;html=1;rounded=0;exitX=1;exitY=0.5;exitDx=0;exitDy=0;entryX=0;entryY=0.5;entryDx=0;entryDy=0;" edge="1" parent="IBXxS17CcvfTMbR3PT0t-1" source="IBXxS17CcvfTMbR3PT0t-2" target="IBXxS17CcvfTMbR3PT0t-16">
                    <mxGeometry relative="1" as="geometry">
                        <mxPoint x="290" y="220" as="sourcePoint"/>
                        <mxPoint x="450" y="220" as="targetPoint"/>
                    </mxGeometry>
                </mxCell>
                <mxCell id="IBXxS17CcvfTMbR3PT0t-18" value="" style="endArrow=none;html=1;rounded=0;exitX=0;exitY=0.5;exitDx=0;exitDy=0;entryX=1;entryY=0.5;entryDx=0;entryDy=0;" edge="1" parent="IBXxS17CcvfTMbR3PT0t-1" source="IBXxS17CcvfTMbR3PT0t-9" target="IBXxS17CcvfTMbR3PT0t-16">
                    <mxGeometry relative="1" as="geometry">
                        <mxPoint x="290" y="250" as="sourcePoint"/>
                        <mxPoint x="340" y="250" as="targetPoint"/>
                    </mxGeometry>
                </mxCell>
                <mxCell id="IBXxS17CcvfTMbR3PT0t-19" value="1" style="text;strokeColor=none;fillColor=none;spacingLeft=4;spacingRight=4;overflow=hidden;rotatable=0;points=[[0,0.5],[1,0.5]];portConstraint=eastwest;fontSize=12;" vertex="1" parent="IBXxS17CcvfTMbR3PT0t-1">
                    <mxGeometry x="280" y="210" width="20" height="30" as="geometry"/>
                </mxCell>
                <mxCell id="IBXxS17CcvfTMbR3PT0t-20" value="n" style="text;strokeColor=none;fillColor=none;spacingLeft=4;spacingRight=4;overflow=hidden;rotatable=0;points=[[0,0.5],[1,0.5]];portConstraint=eastwest;fontSize=12;" vertex="1" parent="IBXxS17CcvfTMbR3PT0t-1">
                    <mxGeometry x="490" y="210" width="20" height="30" as="geometry"/>
                </mxCell>
            </root>
        </mxGraphModel>
    </diagram>
    <diagram id="eJ041aaVm0g48Ksh2qpS" name="1:1">
        <mxGraphModel dx="1011" dy="427" grid="1" gridSize="10" guides="1" tooltips="1" connect="1" arrows="1" fold="1" page="1" pageScale="1" pageWidth="827" pageHeight="1169" math="0" shadow="0">
            <root>
                <mxCell id="0"/>
                <mxCell id="1" parent="0"/>
                <mxCell id="2" value="cats" style="whiteSpace=wrap;html=1;align=center;" parent="1" vertex="1">
                    <mxGeometry x="160" y="220" width="120" height="40" as="geometry"/>
                </mxCell>
                <mxCell id="3" value="id" style="ellipse;whiteSpace=wrap;html=1;align=center;fontStyle=4;" parent="1" vertex="1">
                    <mxGeometry x="160" y="120" width="120" height="40" as="geometry"/>
                </mxCell>
                <mxCell id="4" value="fur_color" style="ellipse;whiteSpace=wrap;html=1;align=center;" parent="1" vertex="1">
                    <mxGeometry x="160" y="320" width="120" height="40" as="geometry"/>
                </mxCell>
                <mxCell id="5" value="cat_name" style="ellipse;whiteSpace=wrap;html=1;align=center;" parent="1" vertex="1">
                    <mxGeometry x="20" y="220" width="100" height="40" as="geometry"/>
                </mxCell>
                <mxCell id="7" value="" style="endArrow=none;html=1;rounded=0;exitX=0.5;exitY=1;exitDx=0;exitDy=0;entryX=0.5;entryY=0;entryDx=0;entryDy=0;" parent="1" source="3" target="2" edge="1">
                    <mxGeometry relative="1" as="geometry">
                        <mxPoint x="280" y="220" as="sourcePoint"/>
                        <mxPoint x="440" y="220" as="targetPoint"/>
                    </mxGeometry>
                </mxCell>
                <mxCell id="8" value="" style="endArrow=none;html=1;rounded=0;entryX=0;entryY=0.5;entryDx=0;entryDy=0;exitX=1;exitY=0.5;exitDx=0;exitDy=0;" parent="1" source="5" target="2" edge="1">
                    <mxGeometry relative="1" as="geometry">
                        <mxPoint x="20" y="310" as="sourcePoint"/>
                        <mxPoint x="180" y="310" as="targetPoint"/>
                    </mxGeometry>
                </mxCell>
                <mxCell id="9" value="" style="endArrow=none;html=1;rounded=0;entryX=0.5;entryY=0;entryDx=0;entryDy=0;exitX=0.5;exitY=1;exitDx=0;exitDy=0;" parent="1" source="2" target="4" edge="1">
                    <mxGeometry relative="1" as="geometry">
                        <mxPoint x="190" y="270" as="sourcePoint"/>
                        <mxPoint x="460" y="240" as="targetPoint"/>
                    </mxGeometry>
                </mxCell>
                <mxCell id="10" value="servants" style="whiteSpace=wrap;html=1;align=center;" parent="1" vertex="1">
                    <mxGeometry x="510" y="220" width="120" height="40" as="geometry"/>
                </mxCell>
                <mxCell id="11" value="id" style="ellipse;whiteSpace=wrap;html=1;align=center;fontStyle=4;" parent="1" vertex="1">
                    <mxGeometry x="510" y="120" width="120" height="40" as="geometry"/>
                </mxCell>
                <mxCell id="12" value="yrs_served" style="ellipse;whiteSpace=wrap;html=1;align=center;" parent="1" vertex="1">
                    <mxGeometry x="510" y="320" width="120" height="40" as="geometry"/>
                </mxCell>
                <mxCell id="13" value="servant_name" style="ellipse;whiteSpace=wrap;html=1;align=center;" parent="1" vertex="1">
                    <mxGeometry x="680" y="220" width="100" height="40" as="geometry"/>
                </mxCell>
                <mxCell id="14" value="" style="endArrow=none;html=1;rounded=0;exitX=0.5;exitY=1;exitDx=0;exitDy=0;entryX=0.5;entryY=0;entryDx=0;entryDy=0;" parent="1" source="11" target="10" edge="1">
                    <mxGeometry relative="1" as="geometry">
                        <mxPoint x="630" y="220" as="sourcePoint"/>
                        <mxPoint x="790" y="220" as="targetPoint"/>
                    </mxGeometry>
                </mxCell>
                <mxCell id="16" value="" style="endArrow=none;html=1;rounded=0;entryX=0.5;entryY=0;entryDx=0;entryDy=0;exitX=0.5;exitY=1;exitDx=0;exitDy=0;" parent="1" source="10" target="12" edge="1">
                    <mxGeometry relative="1" as="geometry">
                        <mxPoint x="540" y="270" as="sourcePoint"/>
                        <mxPoint x="810" y="240" as="targetPoint"/>
                    </mxGeometry>
                </mxCell>
                <mxCell id="17" value="" style="endArrow=none;html=1;rounded=0;exitX=0;exitY=0.5;exitDx=0;exitDy=0;entryX=1;entryY=0.5;entryDx=0;entryDy=0;" parent="1" source="13" target="10" edge="1">
                    <mxGeometry relative="1" as="geometry">
                        <mxPoint x="580" y="170" as="sourcePoint"/>
                        <mxPoint x="580" y="230" as="targetPoint"/>
                    </mxGeometry>
                </mxCell>
                <mxCell id="18" value="has a&amp;nbsp;" style="shape=rhombus;perimeter=rhombusPerimeter;whiteSpace=wrap;html=1;align=center;" parent="1" vertex="1">
                    <mxGeometry x="330" y="210" width="120" height="60" as="geometry"/>
                </mxCell>
                <mxCell id="23" value="" style="endArrow=none;html=1;rounded=0;exitX=1;exitY=0.5;exitDx=0;exitDy=0;entryX=0;entryY=0.5;entryDx=0;entryDy=0;" parent="1" source="2" target="18" edge="1">
                    <mxGeometry relative="1" as="geometry">
                        <mxPoint x="290" y="220" as="sourcePoint"/>
                        <mxPoint x="450" y="220" as="targetPoint"/>
                    </mxGeometry>
                </mxCell>
                <mxCell id="24" value="" style="endArrow=none;html=1;rounded=0;exitX=0;exitY=0.5;exitDx=0;exitDy=0;entryX=1;entryY=0.5;entryDx=0;entryDy=0;" parent="1" source="10" target="18" edge="1">
                    <mxGeometry relative="1" as="geometry">
                        <mxPoint x="290" y="250" as="sourcePoint"/>
                        <mxPoint x="340" y="250" as="targetPoint"/>
                    </mxGeometry>
                </mxCell>
                <mxCell id="25" value="1" style="text;strokeColor=none;fillColor=none;spacingLeft=4;spacingRight=4;overflow=hidden;rotatable=0;points=[[0,0.5],[1,0.5]];portConstraint=eastwest;fontSize=12;" parent="1" vertex="1">
                    <mxGeometry x="280" y="210" width="20" height="30" as="geometry"/>
                </mxCell>
                <mxCell id="26" value="1" style="text;strokeColor=none;fillColor=none;spacingLeft=4;spacingRight=4;overflow=hidden;rotatable=0;points=[[0,0.5],[1,0.5]];portConstraint=eastwest;fontSize=12;" parent="1" vertex="1">
                    <mxGeometry x="490" y="210" width="20" height="30" as="geometry"/>
                </mxCell>
            </root>
        </mxGraphModel>
    </diagram>
</mxfile>